HIERARCHY
ROOT root
{
	OFFSET 0.00 0.00 0.00
	CHANNELS 6 Xposition Yposition Zposition Xrotation Yrotation Zrotation
	JOINT lfemur
	{
		OFFSET 3.80421 -3.76868 0.00000
		CHANNELS 3 Xrotation Yrotation Zrotation
		JOINT ltibia
		{
			OFFSET 0.00000 -17.76572 0.00000
			CHANNELS 3 Xrotation Yrotation Zrotation
			JOINT lfoot
			{
				OFFSET 0.00000 -16.34445 0.00000
				CHANNELS 3 Xrotation Yrotation Zrotation
				JOINT ltoes
				{
					OFFSET 0.00000 -1.60934 6.00613
					CHANNELS 3 Xrotation Yrotation Zrotation
					End Site
					{
						OFFSET 0.00000 0.00000 2.66486
					}
				}
			}
		}
	}
	JOINT rfemur
	{
		OFFSET -3.73314 -3.76868 0.00000
		CHANNELS 3 Xrotation Yrotation Zrotation
		JOINT rtibia
		{
			OFFSET 0.00001 -17.76571 0.00000
			CHANNELS 3 Xrotation Yrotation Zrotation
			JOINT rfoot
			{
				OFFSET 0.00001 -16.34445 0.00000
				CHANNELS 3 Xrotation Yrotation Zrotation
				JOINT rtoes
				{
					OFFSET 0.00000 -1.60933 6.00612
					CHANNELS 3 Xrotation Yrotation Zrotation
					End Site
					{
						OFFSET 0.00000 0.00000 2.66485
					}
				}
			}
		}
	}
	JOINT lowerBack
	{
		OFFSET 0.00000 0.02612 0.00000
		CHANNELS 3 Xrotation Yrotation Zrotation
		JOINT upperBack
		{
			OFFSET 0.00000 4.13549 0.00000
			CHANNELS 3 Xrotation Yrotation Zrotation
			JOINT thorax
			{
				OFFSET 0.00000 4.13548 0.00000
				CHANNELS 3 Xrotation Yrotation Zrotation
				JOINT neck1
				{
					OFFSET 0.00000 6.48004 0.00000
					CHANNELS 3 Xrotation Yrotation Zrotation
					JOINT neck2
					{
						OFFSET 0.00000 2.23561 0.00000
						CHANNELS 3 Xrotation Yrotation Zrotation
						JOINT head
						{
							OFFSET 0.00000 2.23559 0.00000
							CHANNELS 3 Xrotation Yrotation Zrotation
							End Site
							{
								OFFSET 0.00000 4.47112 0.00000
							}
						}
					}
				}
				JOINT lcollar
				{
					OFFSET 0.00000 5.92190 0.00000
					CHANNELS 3 Xrotation Yrotation Zrotation
					JOINT lhumerus
					{
						OFFSET 5.87599 0.00000 0.00000
						CHANNELS 3 Xrotation Yrotation Zrotation
						JOINT lwrist
						{
							OFFSET 11.16432 0.00000 0.00000
							CHANNELS 3 Xrotation Yrotation Zrotation
							JOINT lhand
							{
								OFFSET 10.18494 0.00000 0.00000
								CHANNELS 3 Xrotation Yrotation Zrotation
								End Site
								{
									OFFSET 5.87592 0.00000 0.00000
								}
							}
						}
					}
				}
				JOINT rcollar
				{
					OFFSET 0.00000 5.92190 0.00000
					CHANNELS 3 Xrotation Yrotation Zrotation
					JOINT rhumerus
					{
						OFFSET -5.87599 0.00000 0.00000
						CHANNELS 3 Xrotation Yrotation Zrotation
						JOINT rwrist
						{
							OFFSET -11.16433 0.00001 -0.00000
							CHANNELS 3 Xrotation Yrotation Zrotation
							JOINT rhand
							{
								OFFSET -10.18494 0.00001 0.00000
								CHANNELS 3 Xrotation Yrotation Zrotation
								End Site
								{
									OFFSET -5.87592 0.00000 -0.00000
								}
							}
						}
					}
				}
			}
		}
	}
}
MOTION
Frames: 21
Frame Time: 0.008333
 -124.1333 41.5571 -9.6317 -143.0182 -75.5192 -146.9535 -23.2819 12.6089 11.3985 55.9185 0.0014 -0.0012 -3.7147 9.6203 -0.4641 -12.8969 0.0023 0.0020 -5.6112 4.0940 8.3207 29.0754 -0.0005 0.0004 -1.8128 -1.1882 -7.7616 -15.2280 -0.0005 -0.0004 3.0358 -0.3378 3.6007 2.5025 -0.6662 2.4312 -1.1241 -0.8583 0.7055 -0.1499 -5.9794 -4.1384 -3.5334 -5.9934 -2.0090 -7.2053 -6.3556 0.0303 3.7401 -1.9017 0.1243 1.7349 -7.8933 -71.0308 -0.0054 -10.0057 0.0027 12.9609 7.5489 -14.9311 3.0669 0.7146 -0.0383 2.3693 1.0723 75.7864 -0.0042 19.6547 0.0097 6.6668 2.2889 15.6725
 -124.5573 41.6435 -9.5951 -143.9638 -75.1138 -147.9515 -23.1299 12.4769 11.4930 53.1814 0.0015 -0.0013 -3.7427 9.0220 -0.4622 -12.7908 0.0023 0.0020 -4.8375 3.9929 8.0947 28.8875 -0.0005 0.0004 -1.6015 -0.6102 -7.7703 -15.4697 -0.0005 -0.0004 3.2740 -0.3250 3.6526 2.4843 -0.6124 2.4369 -1.2613 -0.7869 0.6394 -0.2548 -5.9906 -4.2649 -3.5171 -5.9781 -2.0347 -7.0076 -6.3539 0.0802 3.6585 -1.4651 0.0937 2.3649 -6.8727 -70.7949 -0.0054 -9.5809 0.0028 13.4660 7.6181 -14.7587 3.0473 0.8070 -0.0429 2.5728 2.2564 75.5819 -0.0042 20.5165 0.0098 5.2552 2.2721 15.9565
 -125.0112 41.7199 -9.5676 -146.2449 -74.7528 -150.5802 -23.4070 12.4095 12.1077 50.6071 0.0016 -0.0014 -4.0114 8.3371 -1.1839 -12.4250 0.0023 0.0020 -4.4279 4.1809 8.2978 28.6086 -0.0005 0.0004 -1.2534 -0.2309 -7.7103 -15.7689 -0.0005 -0.0004 2.9954 -0.1629 3.9527 2.4032 -0.5367 2.5436 -1.1615 -0.7564 0.5762 -0.3051 -6.0000 -4.4267 -3.5092 -5.9763 -2.0808 -6.9271 -6.3727 0.2107 3.6077 -1.0750 0.0678 2.8821 -5.5966 -70.5323 -0.0054 -9.1378 0.0028 13.6646 7.5918 -15.1751 3.0259 0.8715 -0.0460 2.8202 3.4258 75.3176 -0.0043 21.3536 0.0098 3.8784 2.2035 16.1157
 -125.4543 41.7901 -9.5306 -147.4253 -74.5372 -151.7705 -23.3182 12.1650 12.1051 47.8959 0.0016 -0.0014 -4.1637 7.9076 -1.5803 -11.4754 0.0023 0.0020 -3.8496 3.9588 8.0094 28.4937 -0.0005 0.0004 -1.0649 0.3945 -7.8276 -16.6234 -0.0005 -0.0004 2.8795 -0.2013 3.9809 2.4014 -0.5494 2.5685 -1.0859 -0.7542 0.4938 -0.4757 -5.9926 -4.5908 -3.4983 -6.0014 -2.0940 -6.7584 -6.3842 0.3118 3.9426 -0.5659 0.0390 2.9647 -4.7413 -70.2441 -0.0054 -8.6675 0.0029 13.5407 7.7209 -14.9088 2.9382 0.8815 -0.0452 3.2221 4.8262 75.0070 -0.0043 22.4166 0.0100 1.7533 2.1651 16.4836
 -125.9145 41.8465 -9.4997 -149.6462 -74.1869 -154.3543 -23.5852 12.1787 12.7495 45.3439 0.0017 -0.0015 -4.4710 7.2633 -2.0669 -10.5990 0.0023 0.0019 -3.4909 4.1358 8.2100 28.2339 -0.0005 0.0004 -0.8295 0.8065 -7.8089 -17.0310 -0.0005 -0.0004 2.4557 -0.0044 4.3272 2.3620 -0.4927 2.6733 -0.8378 -0.8045 0.3758 -0.6000 -5.9796 -4.7312 -3.5433 -6.0331 -2.1013 -6.7151 -6.4535 0.4143 3.9774 -0.1538 0.0107 3.3368 -3.6854 -69.9570 -0.0054 -8.2576 0.0029 13.6988 7.6852 -15.0635 3.2047 0.8052 -0.0450 3.1326 6.1835 74.6901 -0.0043 23.3446 0.0100 0.2544 2.1389 16.4273
 -126.3610 41.8851 -9.4670 -150.9731 -73.8442 -155.8075 -23.4988 12.0867 12.9763 42.6449 0.0018 -0.0016 -4.5965 6.7812 -2.3109 -10.2199 0.0023 0.0019 -2.9912 4.1585 8.1017 28.1907 -0.0005 0.0004 -0.8408 1.2756 -7.9150 -17.3739 -0.0005 -0.0004 2.2682 0.0892 4.4057 2.3899 -0.4850 2.7345 -0.6963 -0.8369 0.3162 -0.8274 -6.0099 -4.7965 -3.5879 -6.0580 -2.1472 -6.5583 -6.4451 0.4008 3.4972 0.3617 -0.0221 4.5324 -3.1997 -69.5858 -0.0054 -8.2565 0.0030 13.5326 7.3460 -15.3096 2.9965 0.7946 -0.0416 3.3725 7.0620 74.4288 -0.0044 24.0960 0.0101 -1.0724 2.0559 16.5124
 -126.8100 41.9104 -9.4401 -152.1731 -73.6281 -157.0988 -23.3847 11.8402 13.0889 39.8877 0.0019 -0.0016 -4.7004 6.2926 -2.4791 -10.1575 0.0023 0.0019 -2.5138 4.0853 7.9436 28.1577 -0.0005 0.0004 -0.9460 1.6749 -7.8563 -18.0534 -0.0005 -0.0004 2.0016 0.0685 4.3943 2.4330 -0.5063 2.8050 -0.5411 -0.8783 0.2617 -0.9190 -6.0219 -4.8073 -3.6294 -6.0929 -2.1607 -6.5797 -6.4843 0.4088 3.5436 0.5936 -0.0368 5.2453 -2.9770 -69.2311 -0.0054 -8.0271 0.0030 12.6696 7.4639 -15.3660 3.1500 0.8466 -0.0466 3.2221 7.6802 74.2052 -0.0044 25.0048 0.0102 -1.7054 2.2393 16.4871
 -127.2514 41.9197 -9.4122 -152.8317 -73.3120 -157.8320 -22.9955 11.6315 13.1741 37.0423 0.0019 -0.0017 -4.9206 5.7487 -2.6366 -9.9972 0.0023 0.0019 -1.8867 4.1130 7.7613 28.1919 -0.0005 0.0004 -1.1940 2.0078 -7.7997 -18.6655 -0.0005 -0.0004 1.9446 0.0671 4.3402 2.4933 -0.5227 2.8283 -0.4610 -0.9155 0.2122 -1.0248 -6.0442 -4.7209 -3.6590 -6.1216 -2.1470 -6.4985 -6.5286 0.2834 3.7606 1.0858 -0.0714 5.5488 -2.6118 -68.8024 -0.0054 -7.7348 0.0031 12.4039 7.4746 -15.8927 3.0525 0.8551 -0.0456 3.4999 8.4068 73.9938 -0.0044 25.9133 0.0102 -2.1491 2.5783 16.0776
 -127.7136 41.9157 -9.3905 -154.3949 -73.0138 -159.7337 -22.9835 11.4459 13.6663 34.2982 0.0020 -0.0018 -5.2614 4.9729 -2.6486 -10.1939 0.0023 0.0019 -1.5646 4.3618 7.9515 28.1546 -0.0005 0.0004 -1.3252 2.1366 -7.8231 -19.5670 -0.0005 -0.0004 1.5101 0.1515 4.5415 2.4780 -0.5213 2.9055 -0.2019 -0.9727 0.1606 -1.0787 -6.1011 -4.7166 -3.6612 -6.1858 -2.1247 -6.4900 -6.5874 0.3086 3.6995 1.3537 -0.0875 5.9515 -1.5704 -68.5423 -0.0054 -7.4238 0.0031 12.2625 7.4606 -15.9878 3.0987 0.9410 -0.0509 3.5972 9.0914 73.7029 -0.0045 26.7632 0.0103 -3.0522 2.7545 15.9348
 -128.1583 41.8903 -9.3568 -154.9292 -72.8281 -160.5164 -22.6342 10.9027 13.8501 31.6195 0.0021 -0.0018 -5.5891 4.5029 -2.9981 -9.3566 0.0023 0.0019 -1.0081 4.2539 7.9388 28.2742 -0.0005 0.0004 -1.6996 2.4271 -7.7812 -20.0232 -0.0005 -0.0004 1.4188 0.1181 4.6575 2.5053 -0.5821 2.9638 -0.1307 -1.0515 0.1292 -1.2560 -6.1121 -4.6779 -3.6437 -6.2379 -2.1325 -6.2240 -6.6074 0.2363 3.7020 1.5860 -0.1026 6.3292 -0.5536 -68.2971 -0.0054 -7.1631 0.0031 12.1980 7.5320 -16.2106 3.1265 0.9753 -0.0532 3.7494 9.6156 73.4346 -0.0045 27.5745 0.0104 -3.1620 3.0787 16.0314
 -128.6090 41.8497 -9.3215 -155.8216 -72.5447 -161.7386 -22.3396 10.3455 14.1924 29.0361 0.0022 -0.0019 -6.0088 3.9847 -3.1697 -8.5956 0.0023 0.0019 -0.6130 4.5390 8.0955 28.4538 -0.0005 0.0004 -2.1448 2.4635 -7.7256 -20.1368 -0.0005 -0.0004 1.2377 0.1801 4.8740 2.4981 -0.5985 3.0409 -0.0343 -1.1258 0.0551 -1.3223 -6.1951 -4.6996 -3.6125 -6.2901 -2.1195 -6.0693 -6.6540 0.3144 2.9105 1.8583 -0.0945 8.1856 -1.0035 -67.9015 -0.0054 -7.2643 0.0031 11.2909 7.8929 -16.2883 2.8459 0.9308 -0.0462 4.3007 10.0800 73.2505 -0.0046 28.4814 0.0105 -4.6958 3.4378 15.9639
 -129.0586 41.7961 -9.2899 -156.5247 -72.2965 -162.7731 -21.9513 9.6606 14.5170 26.5083 0.0023 -0.0019 -6.5027 3.4367 -3.4612 -7.9244 0.0023 0.0018 -0.1984 4.7719 8.2417 28.6951 -0.0005 0.0004 -2.6566 2.5465 -7.6434 -20.2366 -0.0005 -0.0004 1.0845 0.1880 5.0524 2.4977 -0.6227 3.1127 0.0333 -1.1767 0.0213 -1.3053 -6.2688 -4.7145 -3.5698 -6.3510 -2.1053 -6.0032 -6.7101 0.4054 3.1573 1.9393 -0.1070 8.3895 -0.2855 -67.6229 -0.0054 -6.8720 0.0031 11.2534 7.9597 -16.4586 2.7752 0.8548 -0.0414 4.3553 10.1816 73.1173 -0.0046 29.1793 0.0106 -4.7463 3.7025 15.9291
 -129.5151 41.7284 -9.2492 -157.4197 -72.0616 -164.0406 -21.5484 8.7705 14.8640 24.0582 0.0024 -0.0019 -7.0660 3.0593 -3.8979 -7.3421 0.0023 0.0018 0.1430 4.9869 8.4236 28.9351 -0.0005 0.0004 -3.1686 2.5581 -7.5396 -20.6883 -0.0005 -0.0005 0.8424 0.2401 5.3226 2.4755 -0.6456 3.2134 0.1184 -1.2650 -0.0695 -1.2708 -6.3500 -4.7586 -3.5335 -6.4335 -2.1007 -5.8996 -6.8063 0.4848 3.1524 2.0236 -0.1114 8.9604 0.3679 -67.3803 -0.0054 -6.7171 0.0032 11.2128 8.1986 -16.8558 2.6502 0.9252 -0.0428 4.6929 10.4770 72.9159 -0.0046 29.9038 0.0107 -5.3676 4.2513 15.7218
 -129.9806 41.6500 -9.2095 -158.6068 -71.8165 -165.5449 -21.1351 7.7830 15.1810 21.6725 0.0025 -0.0020 -7.6917 2.7785 -4.4019 -7.1423 0.0023 0.0018 0.3431 5.3383 8.5865 29.2702 -0.0005 0.0004 -3.7830 2.4869 -7.4318 -20.9285 -0.0005 -0.0004 0.4415 0.3288 5.5582 2.4527 -0.6657 3.3090 0.2592 -1.3522 -0.1622 -1.2322 -6.4084 -4.7728 -3.4679 -6.5126 -2.0825 -5.8240 -6.9005 0.5361 2.9383 2.2146 -0.1136 9.9146 0.3243 -67.0642 -0.0054 -6.5539 0.0032 11.1533 8.3292 -16.8984 2.7650 0.9175 -0.0443 4.7292 10.5386 72.7571 -0.0047 30.5944 0.0107 -5.9046 4.5046 15.6484
 -130.4426 41.5624 -9.1703 -159.4050 -71.5116 -166.7593 -20.5570 6.6800 15.6072 19.4311 0.0025 -0.0020 -8.4516 2.6588 -4.5262 -6.8487 0.0024 0.0018 0.6346 5.5613 8.8142 29.6934 -0.0005 0.0004 -4.3489 2.4173 -7.4176 -21.0694 -0.0005 -0.0005 0.1570 0.4136 5.8429 2.4720 -0.6622 3.4316 0.3790 -1.4322 -0.2526 -1.2789 -6.5140 -4.7493 -3.3993 -6.5942 -2.0787 -5.6377 -6.9438 0.5299 3.2287 2.4566 -0.1385 9.9528 0.8304 -66.7967 -0.0054 -6.2171 0.0032 11.1795 8.4153 -17.1709 2.7512 0.9025 -0.0433 4.7928 10.5175 72.6430 -0.0047 31.1832 0.0108 -6.0795 4.7566 15.7261
 -130.8996 41.4602 -9.1311 -159.9102 -71.2778 -167.6163 -19.9436 5.5252 15.9612 17.4637 0.0026 -0.0020 -9.1715 2.4938 -4.3939 -7.1037 0.0024 0.0018 0.9915 5.7984 8.9608 30.1403 -0.0005 0.0004 -5.0817 2.3928 -7.2533 -21.5698 -0.0005 -0.0005 -0.0198 0.3800 6.0398 2.4854 -0.6736 3.5329 0.4848 -1.4580 -0.3243 -1.2585 -6.6022 -4.7774 -3.3574 -6.6686 -2.0462 -5.5211 -7.0722 0.6306 3.3661 2.6159 -0.1538 10.1707 1.4876 -66.5376 -0.0054 -6.0839 0.0032 11.3842 8.5841 -17.3054 2.9518 0.8546 -0.0440 4.7340 10.8648 72.4194 -0.0047 31.6751 0.0109 -6.8023 5.0688 15.6811
 -131.3655 41.3510 -9.0926 -160.5465 -70.9974 -168.6250 -19.3626 4.4323 16.3776 15.7951 0.0026 -0.0020 -10.0069 2.5053 -4.2780 -7.2892 0.0024 0.0018 1.3139 6.1747 9.1650 30.5645 -0.0005 0.0004 -5.8305 2.2264 -7.2045 -21.5410 -0.0005 -0.0005 -0.3042 0.4428 6.2689 2.5032 -0.6893 3.6344 0.6768 -1.5177 -0.3961 -1.3560 -6.6911 -4.7728 -3.2997 -6.7667 -2.0121 -5.3081 -7.1292 0.7002 3.1414 2.7267 -0.1496 11.0497 1.4987 -66.3585 -0.0054 -6.0329 0.0032 11.2330 8.7402 -17.3429 2.8364 0.9350 -0.0463 4.8677 10.7617 72.3958 -0.0047 32.1190 0.0109 -7.7265 5.1761 15.8688
 -131.8255 41.2282 -9.0550 -161.0125 -70.7427 -169.3773 -18.8112 3.3818 16.6938 14.5218 0.0027 -0.0020 -10.7689 2.6595 -4.3405 -7.5914 0.0024 0.0018 1.6484 6.4621 9.2545 31.1078 -0.0005 0.0004 -6.7142 2.0796 -6.9835 -21.5596 -0.0005 -0.0005 -0.5095 0.4236 6.3934 2.5459 -0.6749 3.7266 0.8068 -1.5337 -0.4773 -1.3933 -6.7900 -4.7598 -3.2509 -6.8590 -1.9640 -5.1606 -7.2125 0.7852 2.9912 2.7307 -0.1426 11.6974 1.7132 -66.1366 -0.0054 -5.8443 0.0033 11.2258 8.7764 -17.2329 2.6570 0.8416 -0.0390 4.8679 10.7804 72.3599 -0.0048 32.2334 0.0109 -8.1146 5.3015 15.6797
 -132.2887 41.1014 -9.0143 -161.6978 -70.4826 -170.2903 -18.3558 2.3720 16.9669 13.5074 0.0027 -0.0020 -11.2719 2.9134 -4.4983 -8.4496 0.0024 0.0019 1.9164 6.6983 9.2513 31.6464 -0.0005 0.0004 -7.5854 2.0429 -6.7540 -21.8110 -0.0005 -0.0005 -0.8119 0.4370 6.5027 2.5803 -0.6671 3.7865 0.9783 -1.5644 -0.5463 -1.3917 -6.8533 -4.7760 -3.2160 -6.9639 -1.9024 -5.0677 -7.3334 0.9086 3.0626 2.8409 -0.1519 11.8542 2.1147 -65.9286 -0.0054 -5.5824 0.0033 11.2289 8.8438 -17.2749 2.5891 0.8392 -0.0379 4.8826 10.7694 72.3133 -0.0048 32.4674 0.0110 -8.1471 5.4154 15.6594
 -132.7411 40.9615 -8.9858 -162.4832 -70.3533 -171.2526 -18.1375 1.2907 17.1837 12.9710 0.0028 -0.0020 -11.5955 3.1345 -4.5046 -9.3836 0.0023 0.0019 2.0864 6.7884 9.2378 32.2995 -0.0004 0.0004 -8.5902 2.0038 -6.6531 -21.9790 -0.0005 -0.0005 -1.0865 0.3044 6.4284 2.5405 -0.6743 3.8592 1.1453 -1.5723 -0.4651 -1.4098 -6.9061 -4.7948 -3.1753 -7.0442 -1.8530 -4.9623 -7.4290 1.0268 2.6385 3.0164 -0.1389 12.3880 2.6601 -65.7664 -0.0054 -5.3423 0.0033 11.6980 9.0658 -17.2608 2.4923 0.7900 -0.0343 4.8215 10.9813 72.2203 -0.0048 32.4064 0.0110 -8.5770 5.4927 15.5010
 -133.1980 40.8216 -8.9507 -163.3901 -70.1413 -172.2766 -18.0422 0.3239 17.3438 12.8282 0.0028 -0.0020 -11.7672 3.4380 -4.5019 -10.4094 0.0023 0.0019 2.1949 6.9777 9.1667 32.9928 -0.0004 0.0004 -9.4598 1.8311 -6.4355 -22.1249 -0.0005 -0.0005 -1.4513 0.1825 6.3682 2.5909 -0.6706 3.9048 1.2973 -1.5178 -0.4360 -1.3788 -6.9577 -4.7270 -3.1373 -7.0991 -1.7974 -4.9209 -7.4867 1.0689 2.7793 3.1601 -0.1533 12.4889 2.8458 -65.6129 -0.0054 -5.1995 0.0033 11.7018 9.0924 -17.2593 2.3825 0.8507 -0.0354 4.8245 10.9820 72.1890 -0.0048 32.4886 0.0111 -8.5853 5.5288 15.4952
